<?xml version="1.0" standalone="no"?>
<!DOCTYPE svg PUBLIC "-//W3C//DTD SVG 20010904//EN"
 "http://www.w3.org/TR/2001/REC-SVG-20010904/DTD/svg10.dtd">
<svg version="1.0" xmlns="http://www.w3.org/2000/svg"
 width="512.000000pt" height="512.000000pt" viewBox="0 0 512.000000 512.000000"
 preserveAspectRatio="xMidYMid meet">
<metadata>
Created by potrace 1.14, written by Peter Selinger 2001-2017
</metadata>
<g transform="translate(0.000000,512.000000) scale(0.100000,-0.100000)"
fill="#000000" stroke="none">
<path d="M1760 4960 l0 -160 160 0 160 0 0 160 0 160 -160 0 -160 0 0 -160z"/>
<path d="M673 4603 c-57 -58 -103 -108 -103 -112 0 -3 50 -56 110 -116 l110
-110 113 113 113 113 -108 107 c-59 59 -114 108 -120 109 -7 1 -59 -46 -115
-104z"/>
<path d="M2935 4600 l-110 -110 110 -110 c61 -60 113 -109 117 -107 13 4 218
209 218 218 0 10 -208 219 -218 219 -4 0 -57 -50 -117 -110z"/>
<path d="M1749 4469 c-414 -59 -777 -317 -966 -684 -41 -81 -98 -230 -109
-288 -35 -185 -39 -400 -9 -542 69 -328 267 -627 538 -810 78 -52 88 -63 97
-99 49 -202 128 -345 264 -482 127 -128 266 -207 446 -256 66 -18 115 -21 393
-25 l317 -5 0 81 0 81 160 0 160 0 0 -80 0 -80 160 0 160 0 0 80 0 80 160 0
160 0 0 -81 0 -81 238 5 c130 2 251 7 267 11 243 50 440 151 595 306 177 176
283 378 324 615 13 78 15 313 2 365 -3 14 -9 41 -13 60 -9 45 -7 38 -22 90
-33 119 -122 280 -214 390 -150 179 -355 308 -577 364 -51 12 -57 17 -84 67
-87 163 -163 251 -344 400 -33 27 -165 99 -232 126 -152 61 -282 83 -455 78
-123 -4 -167 -9 -221 -26 -17 -5 -41 -12 -53 -14 -13 -2 -31 -7 -42 -10 -14
-5 -27 1 -42 17 -12 13 -48 45 -80 71 -157 128 -347 218 -557 263 -84 18 -332
26 -421 13z"/>
<path d="M0 3200 l0 -160 160 0 160 0 0 160 0 160 -160 0 -160 0 0 -160z"/>
<path d="M677 2022 c-59 -59 -107 -110 -107 -114 0 -4 49 -56 109 -116 l109
-109 114 113 114 113 -110 110 c-61 61 -114 111 -116 111 -3 0 -54 -48 -113
-108z"/>
<path d="M640 800 l0 -160 160 0 160 0 0 160 0 160 -160 0 -160 0 0 -160z"/>
<path d="M1280 800 l0 -160 1200 0 1200 0 0 160 0 160 -1200 0 -1200 0 0 -160z"/>
</g>
</svg>
